<svg id="oftnlost_symbol_dark" xmlns="http://www.w3.org/2000/svg" viewBox="0 0 1024 1024"><defs><style>.cls-1{fill:none;stroke:#fff;stroke-linecap:round;stroke-linejoin:round;stroke-width:36.12px;}</style></defs><title>oftnlost-symbol</title><path class="cls-1" d="M394.34,600.92Q386.55,607,378,612.44c-80,50.83-179.33,37.77-221.86-29.17S144,420.87,224,370"/><path class="cls-1" d="M582.25,406.82q-2.47-38.65-7.08-82c-.24-2.32-.17-4.7-.35-7-6.23-83,34.78-124.19,76.16-124.19,23.92,0,45.26,18.47,59.23,47.37a54,54,0,0,1,3.36,9c26.84,97-47.1,173.11-123.88,226.46-38.42,26.7-86.84,43.24-126.07,53.15C336.31,563.72,301,491.24,301,491.24c-30.29-47.67-22.42-106.92,17.58-132.33s97-7.38,127.27,40.3a124.71,124.71,0,0,1,19.23,66.54"/><path class="cls-1" d="M584.43,548.36q-.69,16.07-1.84,30.94c-12.43,161.94-63.11,222.26-102.08,244.78-9.79,5.66-21.39,7.92-32.35,5.18s-26.6-15.4-29.86-36.07c0,0-29.46-125.74,104.39-192.77"/><polyline class="cls-1" points="708.57 668.69 689.43 772.7 788.88 774.28"/><path class="cls-1" d="M646,531.14q6.27-3.95,13.07-7.38c63.54-32,136.74-14.78,163.49,38.4s-3.09,122.18-66.63,154.15"/></svg>